<svg xmlns="http://www.w3.org/2000/svg" xmlns:xlink="http://www.w3.org/1999/xlink" viewBox="0 0 201.56 188.18"><defs><style>.cls-1{mask:url(#mask);filter:url(#luminosity-noclip-9);}.cls-10,.cls-12,.cls-14,.cls-16,.cls-2,.cls-4,.cls-6,.cls-8{mix-blend-mode:multiply;}.cls-2{fill:url(#radial-gradient);}.cls-3{mask:url(#mask-2);filter:url(#luminosity-noclip-14);}.cls-4{fill:url(#radial-gradient-2);}.cls-5{mask:url(#mask-3);filter:url(#luminosity-noclip-15);}.cls-6{fill:url(#radial-gradient-3);}.cls-7{mask:url(#mask-4);filter:url(#luminosity-noclip-16);}.cls-8{fill:url(#radial-gradient-4);}.cls-9{mask:url(#mask-5);filter:url(#luminosity-noclip-10);}.cls-10{fill:url(#radial-gradient-5);}.cls-11{mask:url(#mask-6);filter:url(#luminosity-noclip-11);}.cls-12{fill:url(#radial-gradient-6);}.cls-13{mask:url(#mask-7);filter:url(#luminosity-noclip-12);}.cls-14{fill:url(#radial-gradient-7);}.cls-15{mask:url(#mask-8);filter:url(#luminosity-noclip-13);}.cls-16{fill:url(#radial-gradient-8);}.cls-17{fill:#0e7489;}.cls-18{fill:#091410;}.cls-19{mask:url(#mask-9);}.cls-20{fill:#015b83;}.cls-21{mask:url(#mask-10);}.cls-22{fill:#15233e;}.cls-23{mask:url(#mask-11);}.cls-24{fill:#045a83;}.cls-25{mask:url(#mask-12);}.cls-26{mask:url(#mask-13);}.cls-27{fill:url(#radial-gradient-9);}.cls-28{mask:url(#mask-14);}.cls-29{fill:url(#radial-gradient-10);}.cls-30{mask:url(#mask-15);}.cls-31{mask:url(#mask-16);}.cls-32{fill:url(#radial-gradient-11);}.cls-33{filter:url(#luminosity-noclip-8);}.cls-34{filter:url(#luminosity-noclip-7);}.cls-35{filter:url(#luminosity-noclip-6);}.cls-36{filter:url(#luminosity-noclip-5);}.cls-37{filter:url(#luminosity-noclip-4);}.cls-38{filter:url(#luminosity-noclip-3);}.cls-39{filter:url(#luminosity-noclip-2);}.cls-40{filter:url(#luminosity-noclip);}</style><filter id="luminosity-noclip" x="123.81" y="-8270.71" width="45.48" height="32766" filterUnits="userSpaceOnUse" color-interpolation-filters="sRGB"><feFlood flood-color="#fff" result="bg"/><feBlend in="SourceGraphic" in2="bg"/></filter><mask id="mask" x="123.81" y="-8270.71" width="45.48" height="32766" maskUnits="userSpaceOnUse"><g class="cls-40"/></mask><radialGradient id="radial-gradient" cx="-167.27" cy="348.13" r="43.16" gradientTransform="translate(234.13 -150.13) scale(0.52 0.52)" gradientUnits="userSpaceOnUse"><stop offset="0" stop-color="#ccc"/><stop offset="1" stop-color="#fff"/></radialGradient><filter id="luminosity-noclip-2" x="46.82" y="-8270.71" width="53.09" height="32766" filterUnits="userSpaceOnUse" color-interpolation-filters="sRGB"><feFlood flood-color="#fff" result="bg"/><feBlend in="SourceGraphic" in2="bg"/></filter><mask id="mask-2" x="46.82" y="-8270.71" width="53.09" height="32766" maskUnits="userSpaceOnUse"><g class="cls-39"/></mask><radialGradient id="radial-gradient-2" cx="-303.86" cy="505.91" r="53.22" xlink:href="#radial-gradient"/><filter id="luminosity-noclip-3" x="60.31" y="-8270.71" width="90.79" height="32766" filterUnits="userSpaceOnUse" color-interpolation-filters="sRGB"><feFlood flood-color="#fff" result="bg"/><feBlend in="SourceGraphic" in2="bg"/></filter><mask id="mask-3" x="60.31" y="-8270.71" width="90.79" height="32766" maskUnits="userSpaceOnUse"><g class="cls-38"/></mask><radialGradient id="radial-gradient-3" cx="-245.29" cy="453.36" r="87.34" xlink:href="#radial-gradient"/><filter id="luminosity-noclip-4" x="20.31" y="-8270.71" width="32.42" height="32766" filterUnits="userSpaceOnUse" color-interpolation-filters="sRGB"><feFlood flood-color="#fff" result="bg"/><feBlend in="SourceGraphic" in2="bg"/></filter><mask id="mask-4" x="20.31" y="-8270.71" width="32.42" height="32766" maskUnits="userSpaceOnUse"><g class="cls-37"/></mask><radialGradient id="radial-gradient-4" cx="-377.41" cy="549.8" r="30.94" xlink:href="#radial-gradient"/><filter id="luminosity-noclip-5" x="52.73" y="-8270.71" width="62.11" height="32766" filterUnits="userSpaceOnUse" color-interpolation-filters="sRGB"><feFlood flood-color="#fff" result="bg"/><feBlend in="SourceGraphic" in2="bg"/></filter><mask id="mask-5" x="52.73" y="-8270.71" width="62.11" height="32766" maskUnits="userSpaceOnUse"><g class="cls-36"/></mask><radialGradient id="radial-gradient-5" cx="-287.14" cy="348.13" r="59.3" xlink:href="#radial-gradient"/><filter id="luminosity-noclip-6" x="25.73" y="-8270.71" width="33.07" height="32766" filterUnits="userSpaceOnUse" color-interpolation-filters="sRGB"><feFlood flood-color="#fff" result="bg"/><feBlend in="SourceGraphic" in2="bg"/></filter><mask id="mask-6" x="25.73" y="-8270.71" width="33.07" height="32766" maskUnits="userSpaceOnUse"><g class="cls-35"/></mask><radialGradient id="radial-gradient-6" cx="-366.43" cy="442.82" r="31.57" xlink:href="#radial-gradient"/><filter id="luminosity-noclip-7" x="151.09" y="-8270.71" width="24.21" height="32766" filterUnits="userSpaceOnUse" color-interpolation-filters="sRGB"><feFlood flood-color="#fff" result="bg"/><feBlend in="SourceGraphic" in2="bg"/></filter><mask id="mask-7" x="151.09" y="-8270.71" width="24.21" height="32766" maskUnits="userSpaceOnUse"><g class="cls-34"/></mask><radialGradient id="radial-gradient-7" cx="-135.48" cy="462.95" r="23.29" xlink:href="#radial-gradient"/><filter id="luminosity-noclip-8" x="135.99" y="-8270.71" width="43.02" height="32766" filterUnits="userSpaceOnUse" color-interpolation-filters="sRGB"><feFlood flood-color="#fff" result="bg"/><feBlend in="SourceGraphic" in2="bg"/></filter><mask id="mask-8" x="135.99" y="-8270.71" width="43.02" height="32766" maskUnits="userSpaceOnUse"><g class="cls-33"/></mask><radialGradient id="radial-gradient-8" cx="-146.35" cy="530.48" r="41.32" xlink:href="#radial-gradient"/><filter id="luminosity-noclip-9" x="123.81" y="8.53" width="45.48" height="44.58" filterUnits="userSpaceOnUse" color-interpolation-filters="sRGB"><feFlood flood-color="#fff" result="bg"/><feBlend in="SourceGraphic" in2="bg"/></filter><mask id="mask-9" x="123.81" y="8.53" width="45.48" height="44.58" maskUnits="userSpaceOnUse"><g class="cls-1"><path class="cls-2" d="M169.29,31.17V29.71l-3.48-.42a17.79,17.79,0,0,0-.17-1.79l3.45-1.16-.3-1.43-3.63.33a18,18,0,0,0-.67-1.91l3.1-2L166.92,20l-3.46,1.23a18.65,18.65,0,0,0-1.62-2.4l2.37-2.78-1-1.07-2.91,2.12a18.2,18.2,0,0,0-2-1.73l1.62-3.25-1.24-.8-2.34,2.78A19.6,19.6,0,0,0,154,13l.69-3.59L153.28,9l-1.5,3.3a19,19,0,0,0-3.75-.41l-.42-3.34h-1.48l-.42,3.34a19.46,19.46,0,0,0-3.56.45L140.65,9l-1.42.41.68,3.51a18.79,18.79,0,0,0-2.37,1.11l-2.31-2.72-1.25.79,1.6,3.17a18.77,18.77,0,0,0-2.08,1.76L130.63,15l-1,1.07,2.34,2.71a18.53,18.53,0,0,0-1.66,2.44L126.88,20l-.66,1.31,3.06,2a18.61,18.61,0,0,0-.69,1.95l-3.6-.33-.31,1.43,3.41,1.13c-.09.59-.37,1.18-.41,1.78l-3.86.43v1.46l3.86.43c0,.58.2,1.16.29,1.74l-3.33,1.12.34,1.43,3.57-.33a18.55,18.55,0,0,0,.69,2l-3,1.93.67,1.31,3.35-1.18A18.79,18.79,0,0,0,131.9,42l-2.28,2.64,1,1.07,2.79-2a19.45,19.45,0,0,0,2.1,1.8L134,48.61l1.25.8,2.24-2.62a19.37,19.37,0,0,0,2.43,1.15l-.66,3.39,1.42.44,1.44-3.12a19.11,19.11,0,0,0,3.52.76l.42,3.71h1.48l.42-3.69a19.54,19.54,0,0,0,3.92-.72l1.45,3.11,1.41-.46L154,47.88a19.81,19.81,0,0,0,2.36-1.15l2.26,2.68,1.24-.8-1.57-3.15a18.79,18.79,0,0,0,2-1.77l2.83,2.06,1-1.07L161.89,42a18.86,18.86,0,0,0,1.64-2.44l3.39,1.21.66-1.31-3.05-2a19.93,19.93,0,0,0,.66-1.94l3.6.33.31-1.43-3.42-1.15c.08-.56.09-1.13.12-1.7ZM146.91,45.92a15.7,15.7,0,1,1,15.89-15.7A15.81,15.81,0,0,1,146.91,45.92Z"/></g></mask><filter id="luminosity-noclip-10" x="52.73" y="0" width="62.11" height="61.64" filterUnits="userSpaceOnUse" color-interpolation-filters="sRGB"><feFlood flood-color="#fff" result="bg"/><feBlend in="SourceGraphic" in2="bg"/></filter><mask id="mask-10" x="52.73" y="0" width="62.11" height="61.64" maskUnits="userSpaceOnUse"><g class="cls-9"><path class="cls-10" d="M114.82,29.87l-.25-3.1v0h0v0a1,1,0,0,0-1-.86h-.12L111.3,26h-.06c-.72,0-.89-1-.89-1a27.81,27.81,0,0,0-.8-2.79,2.85,2.85,0,0,1-.16-.85c0-.68.43-.82.43-.82l2-1a.82.82,0,0,0,.51-.77,1.26,1.26,0,0,0-.16-.58l-1.49-2.9h0l0,0h0a.85.85,0,0,0-.76-.47h0a1.29,1.29,0,0,0-.59.16l-1.85.94a.61.61,0,0,1-.27.05,1.39,1.39,0,0,1-1-.48h0c-.11-.23-1.4-1.84-2.11-2.7a1.27,1.27,0,0,1-.37-.8.49.49,0,0,1,.18-.4s.78-.91,1.43-1.68a1,1,0,0,0,.29-.67,1,1,0,0,0-.32-.69l-2.6-2.2h0a.9.9,0,0,0-.59-.23h0a1.08,1.08,0,0,0-.71.31h0l-.06.07L99.77,8.17a.59.59,0,0,1-.46.19,1.92,1.92,0,0,1-.8-.24c-.53-.46-2.4-1.29-3.22-1.82-.39-.26-.49-.5-.49-.69a.59.59,0,0,1,.12-.34l0-.16c.11-.3.33-1,.59-1.78a1.53,1.53,0,0,0,.07-.4A1,1,0,0,0,94.89,2l-.11,0-3-1h0A1.22,1.22,0,0,0,91.41,1h0a1,1,0,0,0-.87.67L89.8,3.88h0c-.11.3-.63.36-1,.37h-.26a30.5,30.5,0,0,0-3.18-.38c-1.14-.09-1.16-.78-1.16-.78s-.07-.87-.17-2.07a1,1,0,0,0-1-1h0l-.14,0L79.7.26a1,1,0,0,0-.92,1.06h0v0c0,.23.12,1.56.17,2.14v.08c0,.52-.44.74-.86.84l-.14,0a28.16,28.16,0,0,0-3.15.89h0a1.64,1.64,0,0,1-.51.1h0a.93.93,0,0,1-.89-.69s-.25-.5-.79-1.52v0h0v0h0a1.05,1.05,0,0,0-.93-.63h0a1,1,0,0,0-.42.09l-3,1.55a.82.82,0,0,0-.49.76,1.38,1.38,0,0,0,.13.56s.74,1.42,1,1.89h0a.83.83,0,0,1,.07.33,1.21,1.21,0,0,1-.57.92c-.41.27-1.57,1.17-2.57,2l0,0h0a1.32,1.32,0,0,1-.83.35h0a1,1,0,0,1-.72-.35L62.67,9.48A1,1,0,0,0,62,9.24a1.13,1.13,0,0,0-.67.24l-2.06,2.39-.14.16,0,0a1,1,0,0,0-.27.66,1.13,1.13,0,0,0,.36.76l1.69,1.43a.66.66,0,0,1,.21.52,2,2,0,0,1-.22.8,24.1,24.1,0,0,0-1.65,2.91c-.28.56-.64.7-.92.7a.9.9,0,0,1-.45-.13l-1.78-.57a1.15,1.15,0,0,0-.38-.07,1,1,0,0,0-.9.58l-1,3a1,1,0,0,0,.52,1.4l2.2.71C57.13,25,57,26,57,26c-.11.51-.28,2-.39,3.22s-.88,1.14-1,1.14h0l-1.87.15a1,1,0,0,0-1,1.26s.14,1.61.23,2.9c.08,1,.69,1.1,1,1.1h.15L56,35.66h.14a1,1,0,0,1,1.11.89c.13.76.76,2.49.95,3.41S57.83,41,57.83,41L56,42a1,1,0,0,0-.49,1.53l1.45,2.83a.85.85,0,0,0,.79.51,1.67,1.67,0,0,0,.76-.23l1.75-.89a.71.71,0,0,1,.32-.08,1.34,1.34,0,0,1,1,.74c.27.45,1.45,1.88,2.05,2.6s.06,1.21.06,1.21L62.36,51.7a1.06,1.06,0,0,0,0,1.46s1.62,1.45,2.51,2.12a1.14,1.14,0,0,0,.69.26,1.12,1.12,0,0,0,.82-.42l1.4-1.63a.69.69,0,0,1,.53-.19,1.44,1.44,0,0,1,.77.24c.45.3,1.94,1.13,2.89,1.61s.68,1.2.68,1.2-.14.45-.57,1.73.52,1.51.52,1.51l3,1a1.72,1.72,0,0,0,.5.09,1,1,0,0,0,.93-.69s.46-1.42.69-2.1c.12-.38.5-.48.88-.48a4.73,4.73,0,0,1,.8.1c.41.07,1.61.21,2.82.3s1.1,1,1.1,1,.09,1.06.16,2c.07.8.85.87,1.14.87h.11l2.93-.23c1.28-.09,1.1-1.18,1.1-1.18s-.09-1.16-.15-2,.83-1.06,1.15-1.11a29.75,29.75,0,0,0,2.9-.82,2.09,2.09,0,0,1,.62-.12.82.82,0,0,1,.86.59l.94,1.83a.85.85,0,0,0,.8.45,1.52,1.52,0,0,0,.47-.08l3-1.53A1,1,0,0,0,99.71,56s-.6-1.18-.88-1.73.11-1.07.63-1.43,1.89-1.45,2.67-2.06h0a1,1,0,0,1,.64-.27h0l.22,0a.64.64,0,0,1,.28.22l1.49,1.26a1.2,1.2,0,0,0,.77.33h0a1.07,1.07,0,0,0,.78-.39h0l2.13-2.48a1,1,0,0,0,.27-.62,1.1,1.1,0,0,0-.45-.79l-1.66-1.41a.6.6,0,0,1-.21-.48,1.82,1.82,0,0,1,.29-.85c.25-.34,1.21-2.08,1.75-3.06h0l0,0a.86.86,0,0,1,.72-.51h0a.89.89,0,0,1,.5.18l1.7.55h0a1.53,1.53,0,0,0,.45.07h0a1,1,0,0,0,.93-.77l1-3a1.34,1.34,0,0,0,.06-.41,1,1,0,0,0-.74-.9l-1.94-.62a1,1,0,0,1-.63-1,1.36,1.36,0,0,1,0-.31c.13-.61.28-2.56.43-3.51h0v0l0-.06h0v0h0v0h0v0h0a.86.86,0,0,1,.52-.55h0l.07,0H112l1.94-.15a.91.91,0,0,0,.93-1A1.38,1.38,0,0,0,114.82,29.87ZM83.26,49.72h-.12a18.89,18.89,0,1,1,.12-37.77h.11a18.89,18.89,0,1,1-.11,37.77Z"/></g></mask><filter id="luminosity-noclip-11" x="25.73" y="63.63" width="33.07" height="32.82" filterUnits="userSpaceOnUse" color-interpolation-filters="sRGB"><feFlood flood-color="#fff" result="bg"/><feBlend in="SourceGraphic" in2="bg"/></filter><mask id="mask-11" x="25.73" y="63.63" width="33.07" height="32.82" maskUnits="userSpaceOnUse"><g class="cls-11"><path class="cls-12" d="M58.79,79.53s-.09-1.11-.13-1.65v0h0a.51.51,0,0,0-.54-.46h-.06l-1.13.09h0c-.38,0-.47-.51-.47-.52s-.17-.73-.43-1.48A1.53,1.53,0,0,1,55.9,75c0-.36.23-.44.23-.44l1-.53a.44.44,0,0,0,.27-.41.68.68,0,0,0-.09-.31l-.79-1.55h0v0h0a.44.44,0,0,0-.41-.25h0a.68.68,0,0,0-.32.08l-1,.5a.27.27,0,0,1-.14,0,.73.73,0,0,1-.53-.26h0c-.06-.12-.74-1-1.13-1.43a.69.69,0,0,1-.2-.43.25.25,0,0,1,.1-.21l.76-.89a.55.55,0,0,0,.15-.36.53.53,0,0,0-.17-.37L52.3,67h0a.5.5,0,0,0-.31-.12h0a.6.6,0,0,0-.38.17h0l0,0-.79.92a.32.32,0,0,1-.25.1,1,1,0,0,1-.43-.13c-.28-.25-1.28-.69-1.71-1-.21-.14-.27-.27-.27-.37a.3.3,0,0,1,.07-.18l0-.08c.05-.16.17-.53.31-.95a.65.65,0,0,0,0-.21.52.52,0,0,0-.39-.48l-.06,0-1.6-.51h0a.65.65,0,0,0-.19,0h0a.51.51,0,0,0-.46.35l-.39,1.19h0c-.06.16-.33.19-.51.2h-.14a16.13,16.13,0,0,0-1.69-.2c-.61,0-.62-.41-.62-.41s0-.46-.09-1.1c0-.48-.36-.54-.52-.55H41.8l-1.71.13a.54.54,0,0,0-.49.57h0v0c0,.12.06.83.09,1.14v0c0,.28-.23.39-.46.45h-.07a14.58,14.58,0,0,0-1.68.47h0a.83.83,0,0,1-.27.05h0a.5.5,0,0,1-.48-.37l-.42-.81v0h0a.56.56,0,0,0-.5-.33h0a.53.53,0,0,0-.22,0l-1.62.82a.43.43,0,0,0-.26.41.75.75,0,0,0,.07.3l.52,1h0a.44.44,0,0,1,0,.18.65.65,0,0,1-.3.49c-.21.14-.84.62-1.37,1.07h0a.73.73,0,0,1-.44.19h0a.51.51,0,0,1-.38-.19L31,68.68a.54.54,0,0,0-.34-.13.6.6,0,0,0-.35.13l-1.1,1.27-.07.08,0,0a.54.54,0,0,0-.14.35.6.6,0,0,0,.19.41l.9.76a.35.35,0,0,1,.11.28,1,1,0,0,1-.12.42,13.51,13.51,0,0,0-.88,1.55c-.15.3-.34.37-.49.37a.47.47,0,0,1-.24-.07l-.95-.3a.69.69,0,0,0-.21,0,.54.54,0,0,0-.48.31l-.53,1.62a.55.55,0,0,0,.28.75l1.17.38c.31.1.25.64.25.64-.06.28-.15,1.08-.21,1.72s-.47.61-.52.61h0l-1,.08a.54.54,0,0,0-.54.67l.12,1.54c0,.53.37.59.53.59h.08l1-.07h.07a.54.54,0,0,1,.59.48c.07.4.41,1.32.5,1.81s-.17.57-.17.57l-1,.5a.55.55,0,0,0-.26.82l.77,1.5a.45.45,0,0,0,.42.27.88.88,0,0,0,.41-.12l.93-.47a.36.36,0,0,1,.17,0,.71.71,0,0,1,.54.39c.14.24.78,1,1.09,1.39s0,.64,0,.64l-.7.81a.56.56,0,0,0,0,.78s.86.77,1.33,1.13a.61.61,0,0,0,.37.14A.6.6,0,0,0,33,93l.75-.87A.37.37,0,0,1,34,92a.76.76,0,0,1,.41.13c.24.16,1,.6,1.55.86s.36.64.36.64l-.3.92c-.23.69.28.81.28.81l1.6.51a.84.84,0,0,0,.27,0,.51.51,0,0,0,.49-.37l.37-1.12c.07-.2.27-.25.47-.25a2.34,2.34,0,0,1,.43.05c.21,0,.86.11,1.5.16s.59.52.59.52L42.12,96c0,.42.45.46.61.46h.05l1.56-.12c.69-.05.59-.63.59-.63l-.08-1c0-.43.44-.56.61-.59s.86-.22,1.54-.44a1.13,1.13,0,0,1,.33-.06.43.43,0,0,1,.46.31l.5,1a.44.44,0,0,0,.42.24.8.8,0,0,0,.25,0l1.61-.81a.52.52,0,0,0,.18-.77l-.47-.92c-.15-.29.06-.57.34-.76s1-.77,1.42-1.1h0a.58.58,0,0,1,.34-.14h0l.12,0a.32.32,0,0,1,.15.12l.79.67a.65.65,0,0,0,.41.18h0a.55.55,0,0,0,.42-.21h0L55.41,90a.49.49,0,0,0,.14-.33.6.6,0,0,0-.24-.42l-.88-.75a.31.31,0,0,1-.11-.26,1,1,0,0,1,.16-.46c.13-.18.64-1.11.93-1.63h0a.46.46,0,0,1,.39-.27h0a.47.47,0,0,1,.27.1l.91.29h0a.85.85,0,0,0,.24,0h0a.52.52,0,0,0,.49-.42l.52-1.59a.69.69,0,0,0,0-.22.53.53,0,0,0-.4-.48l-1-.33a.51.51,0,0,1-.34-.52,1.57,1.57,0,0,1,0-.17c.07-.32.16-1.36.23-1.86h0v0h0a.45.45,0,0,1,.28-.29h.2l1-.08a.49.49,0,0,0,.49-.53A.46.46,0,0,0,58.79,79.53ZM42,90.11h-.07A10.06,10.06,0,1,1,42,70h.06A10.06,10.06,0,1,1,42,90.11Z"/></g></mask><filter id="luminosity-noclip-12" x="151.09" y="78.3" width="24.21" height="24.39" filterUnits="userSpaceOnUse" color-interpolation-filters="sRGB"><feFlood flood-color="#fff" result="bg"/><feBlend in="SourceGraphic" in2="bg"/></filter><mask id="mask-12" x="151.09" y="78.3" width="24.21" height="24.39" maskUnits="userSpaceOnUse"><g class="cls-13"><path class="cls-14" d="M174.86,89.06l-1.6-.36a10,10,0,0,0-.64-2.14l1.23-1.15A.31.31,0,0,0,174,85l-.79-1.52a.32.32,0,0,0-.43-.11l-1.94.4a10.14,10.14,0,0,0-1.5-1.37l.32-1.54a.31.31,0,0,0-.11-.43L168,79.65a.32.32,0,0,0-.41.16l-1.07,1.12a10.36,10.36,0,0,0-1.88-.45v0l-.78-1.86a.31.31,0,0,0-.33-.29l-1.71.2a.31.31,0,0,0-.25.36l-.28,1.7a10.37,10.37,0,0,0-2.21.68L157.63,80a.31.31,0,0,0-.42-.12l-1.44.94a.31.31,0,0,0-.07.43l.59,1.85a10.13,10.13,0,0,0-1.16,1.27L153.24,84a.31.31,0,0,0-.42.11L152,85.65a.31.31,0,0,0,.16.41l1.36,1.23a10.2,10.2,0,0,0-.43,1.84l-1.75.71a.31.31,0,0,0-.3.32l.19,1.7a.31.31,0,0,0,.36.25l1.58.26A10.11,10.11,0,0,0,154,94.9l-1.08.73a.31.31,0,0,0-.22.38l.55,1.62a.31.31,0,0,0,.41.17l2-.1a.33.33,0,0,0,.19-.15,10.32,10.32,0,0,0,1,.87l-.07.1-.21,2a.31.31,0,0,0,.15.41l1.6.63a.31.31,0,0,0,.4-.19l1-1.34a10.35,10.35,0,0,0,2,.48v0l.76,1.87a.31.31,0,0,0,.32.3l1.72-.18a.31.31,0,0,0,.26-.36l.29-1.72a10.42,10.42,0,0,0,1.84-.52l1.23,1.4a.31.31,0,0,0,.41.17l1.56-.73a.31.31,0,0,0,.12-.42l-.33-2-.13-.14a10.09,10.09,0,0,0,1.34-1.36l.09.06,2,.24a.31.31,0,0,0,.42-.14l.66-1.58a.31.31,0,0,0-.19-.4L172.82,94a10.29,10.29,0,0,0,.51-2l1.66-.57a.31.31,0,0,0,.31-.31l-.1-1.71A.31.31,0,0,0,174.86,89.06Zm-8.2,1.6-.09.08-.47.16a2.84,2.84,0,0,1-.15.58l.38.3.06.11-.19.45-.12,0-.57-.07,0,0a2.74,2.74,0,0,1-.38.39l0,0,.1.56,0,.12-.44.21-.11-.05-.35-.4a3.16,3.16,0,0,1-.52.15l-.09.49-.07.1-.49.05-.09-.08-.22-.53h0a2.7,2.7,0,0,1-.55-.14l-.3.38-.11.06-.46-.18,0-.11.06-.57,0,0a2.93,2.93,0,0,1-.27-.24l-.06,0-.57,0-.11,0-.16-.46.06-.11.3-.21a3,3,0,0,1-.23-.72l-.45-.07-.1-.07-.05-.48.08-.09.5-.2a2.79,2.79,0,0,1,.12-.52l-.39-.35,0-.12.22-.44.12,0,.54.1a2.9,2.9,0,0,1,.33-.36l-.17-.53,0-.12.41-.27.12,0,.42.36a2.86,2.86,0,0,1,.63-.2l.08-.48.07-.1.49-.06.1.08.22.53h0a2.8,2.8,0,0,1,.53.13l.3-.32.11,0,.44.22,0,.12-.09.44a2.78,2.78,0,0,1,.43.39l.55-.11.12,0,.22.43,0,.12-.35.33a3,3,0,0,1,.18.61l.45.1.1.08Z"/></g></mask><filter id="luminosity-noclip-13" x="135.99" y="104" width="43.02" height="43.2" filterUnits="userSpaceOnUse" color-interpolation-filters="sRGB"><feFlood flood-color="#fff" result="bg"/><feBlend in="SourceGraphic" in2="bg"/></filter><mask id="mask-13" x="135.99" y="104" width="43.02" height="43.2" maskUnits="userSpaceOnUse"><g class="cls-15"><path class="cls-16" d="M178.48,126.17l-2.73-1.06a18.13,18.13,0,0,0-.55-4l2.5-1.71a.55.55,0,0,0,.39-.68l-1-2.9a.56.56,0,0,0-.73-.3l-3.55.18a18.33,18.33,0,0,0-2.28-2.82l1-2.63a.55.55,0,0,0-.07-.78l-2.49-1.81a.56.56,0,0,0-.77.17l-2.19,1.7a18.24,18.24,0,0,0-3.2-1.3v0l-.87-3.5a.56.56,0,0,0-.5-.61l-3.09-.11a.55.55,0,0,0-.54.56l-1,2.93a18.61,18.61,0,0,0-4.09.61l-2.28-2.65a.56.56,0,0,0-.72-.32l-2.81,1.28a.56.56,0,0,0-.23.75l.53,3.44a18.13,18.13,0,0,0-2.39,1.94l-3.25-1.13a.56.56,0,0,0-.79.08L139,114a.55.55,0,0,0,.17.76l2.07,2.54a17.86,17.86,0,0,0-1.27,3.14l-3.29.78a.55.55,0,0,0-.61.5l-.13,3.06a.56.56,0,0,0,.57.54l2.73.89a17.87,17.87,0,0,0,.77,4.69l-2.11,1a.56.56,0,0,0-.49.61l.53,3a.57.57,0,0,0,.67.41l3.61.37a.63.63,0,0,0,.39-.22,18.24,18.24,0,0,0,1.48,1.79l-.14.17-.92,3.49a.55.55,0,0,0,.15.77l2.66,1.56a.56.56,0,0,0,.75-.24l2.22-2.09a18.23,18.23,0,0,0,3.32,1.37v0l.84,3.51a.55.55,0,0,0,.49.61l3.09.13a.55.55,0,0,0,.55-.56l1-3a18.39,18.39,0,0,0,3.41-.43l1.79,2.81a.56.56,0,0,0,.67.41l3-.87a.56.56,0,0,0,.34-.71l0-3.61a.61.61,0,0,0-.18-.28,18.38,18.38,0,0,0,2.73-2.05l.14.13,3.5,1a.56.56,0,0,0,.78-.14l1.61-2.62a.55.55,0,0,0-.23-.75l-2.09-2.24a17.91,17.91,0,0,0,1.47-3.49l3.09-.56a.56.56,0,0,0,.64-.46l.3-3.05A.56.56,0,0,0,178.48,126.17Zm-21.66,13.49a14.83,14.83,0,0,1-14.19-14.15l12.8,0a2.18,2.18,0,0,0,1.42,1.41Zm0-16.82a2.16,2.16,0,0,0-1.42,1.4l-12.8,0a14.83,14.83,0,0,1,14.25-14.09Zm1.28,16.83,0-12.71a2.15,2.15,0,0,0,1.42-1.41l12.81,0A14.83,14.83,0,0,1,158.13,139.66Zm1.45-15.42a2.17,2.17,0,0,0-1.42-1.41l0-12.71a14.83,14.83,0,0,1,14.19,14.14Z"/></g></mask><radialGradient id="radial-gradient-9" cx="78.67" cy="47.88" r="36.2" gradientTransform="translate(110.48 97.19) scale(0.6 0.59)" gradientUnits="userSpaceOnUse"><stop offset="0" stop-color="#f29e1f"/><stop offset="1" stop-color="#f29e1f"/></radialGradient><filter id="luminosity-noclip-14" x="46.82" y="86.22" width="53.09" height="53.92" filterUnits="userSpaceOnUse" color-interpolation-filters="sRGB"><feFlood flood-color="#fff" result="bg"/><feBlend in="SourceGraphic" in2="bg"/></filter><mask id="mask-14" x="46.82" y="86.22" width="53.09" height="53.92" maskUnits="userSpaceOnUse"><g class="cls-3"><path class="cls-4" d="M96.17,121.26a29.54,29.54,0,0,1-5-.8,18.13,18.13,0,0,1-3,4.39l-1.4-1.4a16.8,16.8,0,0,1-1.34,1.24l1.44,1.43a19.21,19.21,0,0,1-11.22,4.65v-2.36H75.1c-.45,0-.89,0-1.33-.06v2.47a16.73,16.73,0,0,1-11.6-4.95l1.9-1.87a16.23,16.23,0,0,1-1.26-1.32l-1.87,1.85a20.15,20.15,0,0,1-4.6-11.07H59c0-.37,0-.74,0-1.12s0-.46,0-.69H56.27A16.45,16.45,0,0,1,61,100.41l1.73,1.72A17,17,0,0,1,64,100.81l-1.66-1.65A20.39,20.39,0,0,1,70.27,95c-.1-.43-.18-.86-.26-1.29a24.37,24.37,0,0,1-.42-3.62c-.3.06-.6.12-.89.19l-1.84-4-1.75.52L66,91.07A23.58,23.58,0,0,0,63,92.44l-2.84-3.35-1.53,1,2,3.91a23.4,23.4,0,0,0-2.55,2.17L54.57,93.6l-1.25,1.32,2.87,3.34a22.87,22.87,0,0,0-2,3L50,99.79l-.81,1.61,3.76,2.42a22.66,22.66,0,0,0-.84,2.4l-4.41-.4-.38,1.76,4.18,1.4c-.12.72-.15,1.45-.19,2.19l-4.42.53v1.8l4.42.53c0,.72.09,1.44.2,2.14l-4.17,1.39.37,1.76,4.37-.4a24.37,24.37,0,0,0,.83,2.43l-3.71,2.38.81,1.61,4.12-1.45a23.65,23.65,0,0,0,2,3.06l-2.8,3.26,1.25,1.31L58,129a24.35,24.35,0,0,0,2.58,2.21L58.67,135l1.53,1,2.74-3.23a24.46,24.46,0,0,0,3,1.42l-.81,4.18,1.75.54,1.76-3.84a23.7,23.7,0,0,0,4.32.72l.52,4.35h1.81l.51-4.33a23.59,23.59,0,0,0,4.81-.78l1.78,3.89,1.72-.55-.82-4.26a24,24,0,0,0,2.9-1.41L89,136l1.52-1-1.93-3.88A24.93,24.93,0,0,0,91.06,129l3.48,2.53,1.24-1.31-2.84-3.34a23.51,23.51,0,0,0,2-3l4.17,1.48.81-1.61-3.75-2.44Z"/></g></mask><radialGradient id="radial-gradient-10" cx="-303.86" cy="505.91" r="53.22" gradientTransform="translate(234.13 -150.13) scale(0.52 0.52)" xlink:href="#radial-gradient-9"/><filter id="luminosity-noclip-15" x="60.31" y="39.79" width="90.79" height="91.46" filterUnits="userSpaceOnUse" color-interpolation-filters="sRGB"><feFlood flood-color="#fff" result="bg"/><feBlend in="SourceGraphic" in2="bg"/></filter><mask id="mask-15" x="60.31" y="39.79" width="90.79" height="91.46" maskUnits="userSpaceOnUse"><g class="cls-5"><path class="cls-6" d="M150.73,81.14a1.17,1.17,0,0,0-1.29-1l-6-1.34a37.76,37.76,0,0,0-2.41-8l4.62-4.33a1.15,1.15,0,0,0,.6-1.53l-3-5.7a1.18,1.18,0,0,0-1.6-.4l-7.29,1.49a38.59,38.59,0,0,0-5.62-5.14l1.19-5.76a1.16,1.16,0,0,0-.4-1.59l-5.74-3a1.19,1.19,0,0,0-1.55.59l-5,4.21a52,52,0,0,0-8.08-1.69v-.06l-1.87-7c-.08-.68-.1-1.16-.72-1.1l-6.16.75c-.6.07-.89.67-.82,1.35l-1,6.38a38.45,38.45,0,0,0-8.24,2.55L84.82,46a1.16,1.16,0,0,0-1.59-.44l-5.4,3.53a1.17,1.17,0,0,0-.25,1.62l2.22,6.95a38.07,38.07,0,0,0-4.33,4.77l-7.09-1.32a1.17,1.17,0,0,0-1.6.41l-2.89,5.74a1.17,1.17,0,0,0,.61,1.53l5.09,4.61A38.11,38.11,0,0,0,68,80.35L61.42,83a1.16,1.16,0,0,0-1.11,1.21L61,90.61a1.18,1.18,0,0,0,1.36.95l5.93,1A37.62,37.62,0,0,0,71.39,102l-4,2.75a1.16,1.16,0,0,0-.83,1.42l2.06,6.08a1.18,1.18,0,0,0,1.53.65l7.61-.37a1.27,1.27,0,0,0,.72-.57,40.15,40.15,0,0,0,3.64,3.25l-.25.38-.79,7.52a1.16,1.16,0,0,0,.55,1.55l6,2.38a1.17,1.17,0,0,0,1.49-.73l3.91-5a38.52,38.52,0,0,0,7.34,1.8v.06l2.86,7a1.18,1.18,0,0,0,1.22,1.11l6.43-.7a1.17,1.17,0,0,0,1-1.33l1.1-6.44a38.35,38.35,0,0,0,6.91-2l4.62,5.26a1.17,1.17,0,0,0,1.51.65l5.86-2.74a1.17,1.17,0,0,0,.47-1.57L131,114.94l-.48-.53a37.41,37.41,0,0,0,5-5.1l.34.21,7.55.9a1.17,1.17,0,0,0,1.57-.53l2.48-5.93a1.16,1.16,0,0,0-.71-1.48l-5-4a37.54,37.54,0,0,0,1.93-7.68l6.22-2.13a1.17,1.17,0,0,0,1.17-1.15ZM75.61,88a1.94,1.94,0,1,1,2-1.94A1.95,1.95,0,0,1,75.61,88Zm50-24.43a2,2,0,0,1,2.77,0,1.94,1.94,0,0,1,0,2.75,2,2,0,0,1-2.77,0A1.92,1.92,0,0,1,125.59,63.57ZM105.7,54.25a1.95,1.95,0,1,1-2,1.95A2,2,0,0,1,105.7,54.25ZM83,63.57a2,2,0,0,1,2.77,0,1.93,1.93,0,0,1,0,2.75,2,2,0,0,1-2.77,0A1.94,1.94,0,0,1,83,63.57Zm2.77,45a2,2,0,0,1-2.77,0,1.93,1.93,0,0,1,0-2.75,2,2,0,0,1,2.77,0A1.92,1.92,0,0,1,85.81,108.55Zm19.89,9.32a1.94,1.94,0,1,1,2-1.94A2,2,0,0,1,105.7,117.86Zm22.66-9.32a2,2,0,0,1-2.77,0,1.92,1.92,0,0,1,0-2.75,2,2,0,0,1,2.77,0A1.93,1.93,0,0,1,128.36,108.55Zm-22.66,3a26,26,0,1,1,26.2-26A26.1,26.1,0,0,1,105.7,111.52ZM135.78,88a1.94,1.94,0,1,1,2-1.94A2,2,0,0,1,135.78,88Z"/></g></mask><filter id="luminosity-noclip-16" x="20.31" y="119.57" width="32.42" height="32.15" filterUnits="userSpaceOnUse" color-interpolation-filters="sRGB"><feFlood flood-color="#fff" result="bg"/><feBlend in="SourceGraphic" in2="bg"/></filter><mask id="mask-16" x="20.31" y="119.57" width="32.42" height="32.15" maskUnits="userSpaceOnUse"><g class="cls-7"><path class="cls-8" d="M52.72,135.13s-.11-1.08-.15-1.62l0,0h0a.46.46,0,0,0-.48-.48H52l-1.11.1h0c-.37,0-.46-.5-.46-.51a14.38,14.38,0,0,0-.42-1.46,1.24,1.24,0,0,1-.09-.44c0-.35.23-.43.23-.43l1-.52a.43.43,0,0,0,.27-.4.69.69,0,0,0-.08-.31l-.78-1.51s-.17-.37-.33-.33a1.79,1.79,0,0,0-.35.14l-1,.49-.14,0a.75.75,0,0,1-.52-.25h0c-.06-.12-.73-1-1.1-1.41a.69.69,0,0,1-.2-.42.25.25,0,0,1,.1-.21l.75-.88a.54.54,0,0,0,.15-.35.54.54,0,0,0-.17-.36l-1.52-1.2a.34.34,0,0,0-.44,0l-.19.23-.7.84a.28.28,0,0,1-.24.09,1,1,0,0,1-.42-.13c-.28-.24-1.25-.68-1.68-1-.21-.13-.26-.27-.26-.36a.29.29,0,0,1,.06-.18l0-.08.3-.93a.64.64,0,0,0,0-.21.52.52,0,0,0-.38-.47h-.05l-1.58-.51h0l-.2-.07c-.29-.1-.44.56-.44.56s-.3.84-.38,1.08h0c-.06.16-.64,0-.64,0-.23-.06-1.07-.11-1.66-.16s-.6-.39-.6-.39,0-.42-.09-1.05c0-.47-.35-.51-.51-.51h-.09l-1.58.12a.54.54,0,0,0-.48.57h0c0,.12,0,.82,0,1.12h0c0,.27-.26.42-.48.48h-.07a14.91,14.91,0,0,0-1.64.47h0a.51.51,0,0,1-.19,0,.5.5,0,0,1-.49-.33h0s-.11-.29-.39-.82L30.6,121c-.09-.24-.25-.08-.43,0l-.22.13s-1.16.5-1.59.72c-.2.1-.26.19-.26.32a.3.3,0,0,0,.07.22l.51.89.12.38c0,.19-.21.28-.38.39s-.82.63-1.34,1.07l0,0h0a.7.7,0,0,1-.43.17h0a.5.5,0,0,1-.37-.17l-.75-.63a.51.51,0,0,0-.33-.12.58.58,0,0,0-.35.13l-1.08,1.25-.07.08,0,0a.54.54,0,0,0-.14.34.6.6,0,0,0,.19.4l.88.74a.34.34,0,0,1,.11.27,1,1,0,0,1-.12.42,13.32,13.32,0,0,0-.86,1.52c-.15.29-.34.36-.48.36a.46.46,0,0,1-.23-.07l-.93-.3-.2,0a.53.53,0,0,0-.47.3l-.52,1.59a.54.54,0,0,0,.27.73l1.15.37c.3.09.24.63.24.63a14.62,14.62,0,0,0-.2,1.5c0,.58-.5.57-.56.57h0a9.31,9.31,0,0,1-.94.1c-.66.06-.53.75-.53.75s.07.89.12,1.56c0,.51.36.6.51.6H21l1-.07h.07a.54.54,0,0,1,.58.47c.07.4.4,1.3.49,1.78S23,141,23,141l-1,.49a.53.53,0,0,0-.26.79l.75,1.47a.45.45,0,0,0,.42.27.86.86,0,0,0,.4-.12l.91-.47.16,0a.7.7,0,0,1,.53.39c.14.23.76,1,1.07,1.36s0,.62,0,.62l-.68.8a.55.55,0,0,0,0,.76s.84.76,1.31,1.11a.62.62,0,0,0,.36.14.59.59,0,0,0,.43-.22l.73-.85a.35.35,0,0,1,.27-.1.76.76,0,0,1,.4.13c.23.16,1,.59,1.52.84s.35.63.35.63l-.29.91c-.22.67.27.79.27.79l1.57.5a.82.82,0,0,0,.27,0,.51.51,0,0,0,.49-.36l.36-1.1c.06-.2.27-.25.47-.25a2.32,2.32,0,0,1,.42,0c.21,0,.84.11,1.48.16s.57.5.57.5,0,.55.08,1.06.44.45.59.45H37l1.52-.12c.67-.06.59-.62.59-.62s-.05-.6-.09-1,.43-.56.6-.58.84-.22,1.51-.43a1.07,1.07,0,0,1,.32-.06.42.42,0,0,1,.45.3l.5,1a.43.43,0,0,0,.41.24.76.76,0,0,0,.25,0l1.57-.8a.51.51,0,0,0,.18-.76l-.46-.9c-.14-.28.06-.56.33-.75s1-.76,1.39-1.08c0,0,.33-.3.42-.3l.19.22s.37.41.78.88a.54.54,0,0,0,.81,0l1.17-1.35a.68.68,0,0,0,.11-.41.63.63,0,0,0-.26-.43l-.87-.75a.33.33,0,0,1-.11-.26,1,1,0,0,1,.15-.45c.13-.17.56-1.09.85-1.59h0l0,.1c.12-.21.29-.16.41-.16h0l.26,0a6.25,6.25,0,0,1,.89.23v.06c.09,0,.16.13.23.13h0c.4,0,.48-.5.48-.5s.33-1.06.51-1.61a.68.68,0,0,0,0-.24.53.53,0,0,0-.38-.48l-1-.33a.5.5,0,0,1-.32-.51l0-.17c.07-.32.15-1.34.22-1.83h0v-.21c.06-.17.21-.17.32-.21h0s.58-.06,1.19-.1a.47.47,0,0,0,.49-.52A.33.33,0,0,0,52.72,135.13Zm-16.58-10a10.56,10.56,0,0,1,7.33,2.94l-1.68,1.67c-.17-.16-.35-.31-.54-.45l.25-1.18a.24.24,0,0,0-.08-.32l-1.18-.61a.24.24,0,0,0-.32.12l-1,.87a11.51,11.51,0,0,0-1.58-.35h0l-.46-1.43c0-.14-.06-.24-.19-.22l-1.28.15a.23.23,0,0,0-.18.28l-.2,1.3a7.93,7.93,0,0,0-1.69.52l-1.14-1a.23.23,0,0,0-.32-.09l-1.11.72a.23.23,0,0,0,0,.33l.31,1-1.76-1.75A10.56,10.56,0,0,1,36.14,125.15Zm4.31,7.48.17,0,.32.62-.07.17-.5.47a4,4,0,0,1,.26.87l.65.14.14.11,0,.7-.13.12-.67.23a4.4,4.4,0,0,1-.21.83l.54.44.08.16-.27.64-.17.06-.78-.09-1.71-1.7a1.73,1.73,0,0,0,0-1.61l2.2-2.18Zm-1,6.91-.05.17-.63.3-.16-.07-.5-.57a4,4,0,0,1-.75.21l-.12.7-.1.15-.7.07-.25-.12-.42-.76h0s-.43-.1-.69-.19l-.36.54-.14.08-.64-.26,0-.17.06-.6,1.85-1.83a1.79,1.79,0,0,0,1.63,0l2,1.95Zm-6.74-1-.16-.07-.23-.66.09-.15.44-.31a4.09,4.09,0,0,1-.33-1l-.65-.1-.15-.1-.08-.69.12-.13.71-.29a3.8,3.8,0,0,1,.18-.74l-.55-.5-.07-.17.32-.62.17,0,.74.14,1.8,1.79a1.72,1.72,0,0,0,0,1.61L33,138.49Zm.81-6.74,0-.18.58-.38.18,0,.61.52a4,4,0,0,1,.9-.28l.11-.69.1-.15.7-.08.26.12.43.76h0a5.57,5.57,0,0,0,.64.19l.37-.46.14-.06.61.33,0,.17-.13.63.12.1-1.76,1.74a1.78,1.78,0,0,0-1.62,0l-2.28-2.26Zm-7.91,3.86a10.41,10.41,0,0,1,3-7.27l2.1,2.09-.31.37-1.45-.28a.24.24,0,0,0-.33.09L28,131.81a.23.23,0,0,0,.13.31l1,.94a7.28,7.28,0,0,0-.33,1.41l-1.34.54a.24.24,0,0,0-.23.25l.14,1.3a.25.25,0,0,0,.28.2l1.21.2a8,8,0,0,0,.63,1.94l-.83.56a.24.24,0,0,0-.17.29l.42,1.24a.24.24,0,0,0,.31.13l1.1-.05-1.81,1.79A10.39,10.39,0,0,1,25.59,135.63ZM36.14,146.1a10.56,10.56,0,0,1-6.84-2.51l2.18-2.16.21.18-.05.08-.16,1.54a.23.23,0,0,0,.11.32l1.23.49a.24.24,0,0,0,.3-.15l.76-1a9.77,9.77,0,0,0,1.45.37h0l.63,1.43a.26.26,0,0,0,.27.23l1.33-.14a.24.24,0,0,0,.2-.28l.23-1.32a8,8,0,0,0,1.42-.4l.95,1.08a.23.23,0,0,0,.31.13l1.2-.56a.24.24,0,0,0,.09-.32l-.25-1.52-.1-.11,0,0,1.78,1.78A10.57,10.57,0,0,1,36.14,146.1Zm8-3.67-1.76-1.75c.08-.09.17-.17.24-.27l.07,0,1.55.19a.24.24,0,0,0,.32-.11l.51-1.22a.25.25,0,0,0-.15-.31l-1-.81a7.81,7.81,0,0,0,.4-1.57l1.27-.43a.24.24,0,0,0,.24-.24l-.07-1.31a.24.24,0,0,0-.26-.21l-1.23-.28a8,8,0,0,0-.49-1.64l.95-.89a.24.24,0,0,0,.12-.31l-.61-1.17a.24.24,0,0,0-.32-.08l-1.14.23,1.44-1.43a10.4,10.4,0,0,1,0,13.57Z"/></g></mask><radialGradient id="radial-gradient-11" cx="-123.76" cy="64.81" r="27.11" gradientTransform="translate(110.48 97.19) scale(0.6 0.59)" gradientUnits="userSpaceOnUse"><stop offset="0.1" stop-color="#091410"/><stop offset="0.74" stop-color="#015b83"/></radialGradient></defs><title>howItWorks_1</title><g id="Layer_2" data-name="Layer 2"><g id="Layer_1-2" data-name="Layer 1"><path class="cls-17" d="M193.62,175.51V161.86a5.73,5.73,0,0,0-.06-.86V147.49a3.89,3.89,0,0,0-4-3.81h-2.53l-5.54-7,1.95-4.41c.51-1.16,1.85-3.16,1.6-4.52-.43-2.29-3.75-3.12-4.79-.76l-2.06,4.66c-.63,1.41-1.28,2.82-1.87,4.24-.72,1.73.37,2.83,1.38,4.11l4.14,5.23.11.14a3.69,3.69,0,0,0-.25.42l-.42-.56L177.17,140l-.42-.52-.39-.5-.09-.12-.07-.1-.08-.12-.06-.1-.08-.12-.06-.1-.07-.13,0-.1-.06-.15,0-.08a2.3,2.3,0,0,1-.08-.23v0c0-.07,0-.13,0-.2v-.09c0-.05,0-.11,0-.16s0-.07,0-.1,0-.1,0-.16a1,1,0,0,1,0-.11,1.12,1.12,0,0,1,0-.17s0-.07,0-.11l0-.19,0-.1c0-.1.07-.2.11-.3l.14-.34c.56-1.31,1.15-2.6,1.73-3.91l2.06-4.66a2.7,2.7,0,0,1,.22-.4,2.1,2.1,0,0,0-2.09,1.2L174,136.61a2.07,2.07,0,0,0-.27,1s0,.06,0,.09,0,.05,0,.08a2.07,2.07,0,0,0,.62,1.39l6.69,8.44a2,2,0,0,0,.34.35v14.28a3.6,3.6,0,0,0,.14,1l-4.49,5a3.06,3.06,0,0,0-.94,2.25c0,.05,0,.1,0,.15v14.45c0,2.08,1.07,3.09,3.07,3.09,1.82,0,2.63-1.12,2.63-3.09V171.45l4.82-5.42h1.35v10.29c0,.05,0,.1,0,.15a3.07,3.07,0,0,0,.94,2.25l7.5,8.44a3.08,3.08,0,0,0,4.33.27c1.27-1.11,1.07-2.75-.05-4Z"/><path class="cls-17" d="M189.68,142.81a5.95,5.95,0,1,0-6-5.94A6,6,0,0,0,189.68,142.81Z"/><path class="cls-18" d="M.52,152.36l6.16-7.53a4,4,0,0,1,3.5-2h4.3a4,4,0,0,1,3.51,2l3.56,4.91,9.85,4.05a2.24,2.24,0,1,1-.85,4.4l-10-4.13a2.32,2.32,0,0,1-.65-.23,2.06,2.06,0,0,1-1-.74l-.46-.63V184.2c0,1.94-.82,3-2.64,3-2,0-3.07-1-3.07-3V165.14h-.82V184.2c0,1.94-.82,3-2.64,3-2,0-3.07-1-3.07-3v-31.7l-1.93,2.36v9.33a2.14,2.14,0,0,1-4.28,0V154s0-.08,0-.12A2.22,2.22,0,0,1,.52,152.36Z"/><path class="cls-18" d="M11.52,141.93a5.95,5.95,0,1,1,6-5.95A6,6,0,0,1,11.52,141.93Z"/><g class="cls-19"><path class="cls-20" d="M169.29,31.17V29.71l-3.48-.42a17.79,17.79,0,0,0-.17-1.79l3.45-1.16-.3-1.43-3.63.33a18,18,0,0,0-.67-1.91l3.1-2L166.92,20l-3.46,1.23a18.65,18.65,0,0,0-1.62-2.4l2.37-2.78-1-1.07-2.91,2.12a18.2,18.2,0,0,0-2-1.73l1.62-3.25-1.24-.8-2.34,2.78A19.6,19.6,0,0,0,154,13l.69-3.59L153.28,9l-1.5,3.3a19,19,0,0,0-3.75-.41l-.42-3.34h-1.48l-.42,3.34a19.46,19.46,0,0,0-3.56.45L140.65,9l-1.42.41.68,3.51a18.79,18.79,0,0,0-2.37,1.11l-2.31-2.72-1.25.79,1.6,3.17a18.77,18.77,0,0,0-2.08,1.76L130.63,15l-1,1.07,2.34,2.71a18.53,18.53,0,0,0-1.66,2.44L126.88,20l-.66,1.31,3.06,2a18.61,18.61,0,0,0-.69,1.95l-3.6-.33-.31,1.43,3.41,1.13c-.09.59-.37,1.18-.41,1.78l-3.86.43v1.46l3.86.43c0,.58.2,1.16.29,1.74l-3.33,1.12.34,1.43,3.57-.33a18.55,18.55,0,0,0,.69,2l-3,1.93.67,1.31,3.35-1.18A18.79,18.79,0,0,0,131.9,42l-2.28,2.64,1,1.07,2.79-2a19.45,19.45,0,0,0,2.1,1.8L134,48.61l1.25.8,2.24-2.62a19.37,19.37,0,0,0,2.43,1.15l-.66,3.39,1.42.44,1.44-3.12a19.11,19.11,0,0,0,3.52.76l.42,3.71h1.48l.42-3.69a19.54,19.54,0,0,0,3.92-.72l1.45,3.11,1.41-.46L154,47.88a19.81,19.81,0,0,0,2.36-1.15l2.26,2.68,1.24-.8-1.57-3.15a18.79,18.79,0,0,0,2-1.77l2.83,2.06,1-1.07L161.89,42a18.86,18.86,0,0,0,1.64-2.44l3.39,1.21.66-1.31-3.05-2a19.93,19.93,0,0,0,.66-1.94l3.6.33.31-1.43-3.42-1.15c.08-.56.09-1.13.12-1.7ZM146.91,45.92a15.7,15.7,0,1,1,15.89-15.7A15.81,15.81,0,0,1,146.91,45.92Z"/></g><g class="cls-21"><path class="cls-22" d="M114.82,29.87l-.25-3.1v0h0v0a1,1,0,0,0-1-.86h-.12L111.3,26h-.06c-.72,0-.89-1-.89-1a27.81,27.81,0,0,0-.8-2.79,2.85,2.85,0,0,1-.16-.85c0-.68.43-.82.43-.82l2-1a.82.82,0,0,0,.51-.77,1.26,1.26,0,0,0-.16-.58l-1.49-2.9h0l0,0h0a.85.85,0,0,0-.76-.47h0a1.29,1.29,0,0,0-.59.16l-1.85.94a.61.61,0,0,1-.27.05,1.39,1.39,0,0,1-1-.48h0c-.11-.23-1.4-1.84-2.11-2.7a1.27,1.27,0,0,1-.37-.8.49.49,0,0,1,.18-.4s.78-.91,1.43-1.68a1,1,0,0,0,.29-.67,1,1,0,0,0-.32-.69l-2.6-2.2h0a.9.9,0,0,0-.59-.23h0a1.08,1.08,0,0,0-.71.31h0l-.06.07L99.77,8.17a.59.59,0,0,1-.46.19,1.92,1.92,0,0,1-.8-.24c-.53-.46-2.4-1.29-3.22-1.82-.39-.26-.49-.5-.49-.69a.59.59,0,0,1,.12-.34l0-.16c.11-.3.33-1,.59-1.78a1.53,1.53,0,0,0,.07-.4A1,1,0,0,0,94.89,2l-.11,0-3-1h0A1.22,1.22,0,0,0,91.41,1h0a1,1,0,0,0-.87.67L89.8,3.88h0c-.11.3-.63.36-1,.37h-.26a30.5,30.5,0,0,0-3.18-.38c-1.14-.09-1.16-.78-1.16-.78s-.07-.87-.17-2.07a1,1,0,0,0-1-1h0l-.14,0L79.7.26a1,1,0,0,0-.92,1.06h0v0c0,.23.12,1.56.17,2.14v.08c0,.52-.44.74-.86.84l-.14,0a28.16,28.16,0,0,0-3.15.89h0a1.64,1.64,0,0,1-.51.1h0a.93.93,0,0,1-.89-.69s-.25-.5-.79-1.52v0h0v0h0a1.05,1.05,0,0,0-.93-.63h0a1,1,0,0,0-.42.09l-3,1.55a.82.82,0,0,0-.49.76,1.38,1.38,0,0,0,.13.56s.74,1.42,1,1.89h0a.83.83,0,0,1,.07.33,1.21,1.21,0,0,1-.57.92c-.41.27-1.57,1.17-2.57,2l0,0h0a1.32,1.32,0,0,1-.83.35h0a1,1,0,0,1-.72-.35L62.67,9.48A1,1,0,0,0,62,9.24a1.13,1.13,0,0,0-.67.24l-2.06,2.39-.14.16,0,0a1,1,0,0,0-.27.66,1.13,1.13,0,0,0,.36.76l1.69,1.43a.66.66,0,0,1,.21.52,2,2,0,0,1-.22.8,24.1,24.1,0,0,0-1.65,2.91c-.28.56-.64.7-.92.7a.9.9,0,0,1-.45-.13l-1.78-.57a1.15,1.15,0,0,0-.38-.07,1,1,0,0,0-.9.58l-1,3a1,1,0,0,0,.52,1.4l2.2.71C57.13,25,57,26,57,26c-.11.51-.28,2-.39,3.22s-.88,1.14-1,1.14h0l-1.87.15a1,1,0,0,0-1,1.26s.14,1.61.23,2.9c.08,1,.69,1.1,1,1.1h.15L56,35.66h.14a1,1,0,0,1,1.11.89c.13.76.76,2.49.95,3.41S57.83,41,57.83,41L56,42a1,1,0,0,0-.49,1.53l1.45,2.83a.85.85,0,0,0,.79.51,1.67,1.67,0,0,0,.76-.23l1.75-.89a.71.71,0,0,1,.32-.08,1.34,1.34,0,0,1,1,.74c.27.45,1.45,1.88,2.05,2.6s.06,1.21.06,1.21L62.36,51.7a1.06,1.06,0,0,0,0,1.46s1.62,1.45,2.51,2.12a1.14,1.14,0,0,0,.69.26,1.12,1.12,0,0,0,.82-.42l1.4-1.63a.69.69,0,0,1,.53-.19,1.44,1.44,0,0,1,.77.24c.45.3,1.94,1.13,2.89,1.61s.68,1.2.68,1.2-.14.45-.57,1.73.52,1.51.52,1.51l3,1a1.72,1.72,0,0,0,.5.09,1,1,0,0,0,.93-.69s.46-1.42.69-2.1c.12-.38.5-.48.88-.48a4.73,4.73,0,0,1,.8.1c.41.07,1.61.21,2.82.3s1.1,1,1.1,1,.09,1.06.16,2c.07.8.85.87,1.14.87h.11l2.93-.23c1.28-.09,1.1-1.18,1.1-1.18s-.09-1.16-.15-2,.83-1.06,1.15-1.11a29.75,29.75,0,0,0,2.9-.82,2.09,2.09,0,0,1,.62-.12.82.82,0,0,1,.86.59l.94,1.83a.85.85,0,0,0,.8.45,1.52,1.52,0,0,0,.47-.08l3-1.53A1,1,0,0,0,99.71,56s-.6-1.18-.88-1.73.11-1.07.63-1.43,1.89-1.45,2.67-2.06h0a1,1,0,0,1,.64-.27h0l.22,0a.64.64,0,0,1,.28.22l1.49,1.26a1.2,1.2,0,0,0,.77.33h0a1.07,1.07,0,0,0,.78-.39h0l2.13-2.48a1,1,0,0,0,.27-.62,1.1,1.1,0,0,0-.45-.79l-1.66-1.41a.6.6,0,0,1-.21-.48,1.82,1.82,0,0,1,.29-.85c.25-.34,1.21-2.08,1.75-3.06h0l0,0a.86.86,0,0,1,.72-.51h0a.89.89,0,0,1,.5.18l1.7.55h0a1.53,1.53,0,0,0,.45.07h0a1,1,0,0,0,.93-.77l1-3a1.34,1.34,0,0,0,.06-.41,1,1,0,0,0-.74-.9l-1.94-.62a1,1,0,0,1-.63-1,1.36,1.36,0,0,1,0-.31c.13-.61.28-2.56.43-3.51h0v0l0-.06h0v0h0v0h0v0h0a.86.86,0,0,1,.52-.55h0l.07,0H112l1.94-.15a.91.91,0,0,0,.93-1A1.38,1.38,0,0,0,114.82,29.87ZM83.26,49.72h-.12a18.89,18.89,0,1,1,.12-37.77h.11a18.89,18.89,0,1,1-.11,37.77Z"/></g><g class="cls-23"><path class="cls-24" d="M58.79,79.53s-.09-1.11-.13-1.65v0h0a.51.51,0,0,0-.54-.46h-.06l-1.13.09h0c-.38,0-.47-.51-.47-.52s-.17-.73-.43-1.48A1.53,1.53,0,0,1,55.9,75c0-.36.23-.44.23-.44l1-.53a.44.44,0,0,0,.27-.41.68.68,0,0,0-.09-.31l-.79-1.55h0v0h0a.44.44,0,0,0-.41-.25h0a.68.68,0,0,0-.32.08l-1,.5a.27.27,0,0,1-.14,0,.73.73,0,0,1-.53-.26h0c-.06-.12-.74-1-1.13-1.43a.69.69,0,0,1-.2-.43.25.25,0,0,1,.1-.21l.76-.89a.55.55,0,0,0,.15-.36.53.53,0,0,0-.17-.37L52.3,67h0a.5.5,0,0,0-.31-.12h0a.6.6,0,0,0-.38.17h0l0,0-.79.92a.32.32,0,0,1-.25.1,1,1,0,0,1-.43-.13c-.28-.25-1.28-.69-1.71-1-.21-.14-.27-.27-.27-.37a.3.3,0,0,1,.07-.18l0-.08c.05-.16.17-.53.31-.95a.65.65,0,0,0,0-.21.52.52,0,0,0-.39-.48l-.06,0-1.6-.51h0a.65.65,0,0,0-.19,0h0a.51.51,0,0,0-.46.35l-.39,1.19h0c-.06.16-.33.19-.51.2h-.14a16.13,16.13,0,0,0-1.69-.2c-.61,0-.62-.41-.62-.41s0-.46-.09-1.1c0-.48-.36-.54-.52-.55H41.8l-1.71.13a.54.54,0,0,0-.49.57h0v0c0,.12.06.83.09,1.14v0c0,.28-.23.39-.46.45h-.07a14.58,14.58,0,0,0-1.68.47h0a.83.83,0,0,1-.27.05h0a.5.5,0,0,1-.48-.37l-.42-.81v0h0a.56.56,0,0,0-.5-.33h0a.53.53,0,0,0-.22,0l-1.62.82a.43.43,0,0,0-.26.41.75.75,0,0,0,.07.3l.52,1h0a.44.44,0,0,1,0,.18.65.65,0,0,1-.3.49c-.21.14-.84.62-1.37,1.07h0a.73.73,0,0,1-.44.19h0a.51.51,0,0,1-.38-.19L31,68.68a.54.54,0,0,0-.34-.13.6.6,0,0,0-.35.13l-1.1,1.27-.07.08,0,0a.54.54,0,0,0-.14.35.6.6,0,0,0,.19.41l.9.76a.35.35,0,0,1,.11.28,1,1,0,0,1-.12.42,13.51,13.51,0,0,0-.88,1.55c-.15.3-.34.37-.49.37a.47.47,0,0,1-.24-.07l-.95-.3a.69.69,0,0,0-.21,0,.54.54,0,0,0-.48.31l-.53,1.62a.55.55,0,0,0,.28.75l1.17.38c.31.1.25.64.25.64-.06.28-.15,1.08-.21,1.72s-.47.61-.52.61h0l-1,.08a.54.54,0,0,0-.54.67l.12,1.54c0,.53.37.59.53.59h.08l1-.07h.07a.54.54,0,0,1,.59.48c.07.4.41,1.32.5,1.81s-.17.57-.17.57l-1,.5a.55.55,0,0,0-.26.82l.77,1.5a.45.45,0,0,0,.42.27.88.88,0,0,0,.41-.12l.93-.47a.36.36,0,0,1,.17,0,.71.71,0,0,1,.54.39c.14.24.78,1,1.09,1.39s0,.64,0,.64l-.7.81a.56.56,0,0,0,0,.78s.86.77,1.33,1.13a.61.61,0,0,0,.37.14A.6.6,0,0,0,33,93l.75-.87A.37.37,0,0,1,34,92a.76.76,0,0,1,.41.13c.24.16,1,.6,1.55.86s.36.64.36.64l-.3.92c-.23.69.28.81.28.81l1.6.51a.84.84,0,0,0,.27,0,.51.51,0,0,0,.49-.37l.37-1.12c.07-.2.27-.25.47-.25a2.34,2.34,0,0,1,.43.05c.21,0,.86.11,1.5.16s.59.52.59.52L42.12,96c0,.42.45.46.61.46h.05l1.56-.12c.69-.05.59-.63.59-.63l-.08-1c0-.43.44-.56.61-.59s.86-.22,1.54-.44a1.13,1.13,0,0,1,.33-.06.43.43,0,0,1,.46.31l.5,1a.44.44,0,0,0,.42.24.8.8,0,0,0,.25,0l1.61-.81a.52.52,0,0,0,.18-.77l-.47-.92c-.15-.29.06-.57.34-.76s1-.77,1.42-1.1h0a.58.58,0,0,1,.34-.14h0l.12,0a.32.32,0,0,1,.15.12l.79.67a.65.65,0,0,0,.41.18h0a.55.55,0,0,0,.42-.21h0L55.41,90a.49.49,0,0,0,.14-.33.6.6,0,0,0-.24-.42l-.88-.75a.31.31,0,0,1-.11-.26,1,1,0,0,1,.16-.46c.13-.18.64-1.11.93-1.63h0a.46.46,0,0,1,.39-.27h0a.47.47,0,0,1,.27.1l.91.29h0a.85.85,0,0,0,.24,0h0a.52.52,0,0,0,.49-.42l.52-1.59a.69.69,0,0,0,0-.22.53.53,0,0,0-.4-.48l-1-.33a.51.51,0,0,1-.34-.52,1.57,1.57,0,0,1,0-.17c.07-.32.16-1.36.23-1.86h0v0h0a.45.45,0,0,1,.28-.29h.2l1-.08a.49.49,0,0,0,.49-.53A.46.46,0,0,0,58.79,79.53ZM42,90.11h-.07A10.06,10.06,0,1,1,42,70h.06A10.06,10.06,0,1,1,42,90.11Z"/></g><g class="cls-25"><path class="cls-22" d="M174.86,89.06l-1.6-.36a10,10,0,0,0-.64-2.14l1.23-1.15A.31.31,0,0,0,174,85l-.79-1.52a.32.32,0,0,0-.43-.11l-1.94.4a10.14,10.14,0,0,0-1.5-1.37l.32-1.54a.31.31,0,0,0-.11-.43L168,79.65a.32.32,0,0,0-.41.16l-1.07,1.12a10.36,10.36,0,0,0-1.88-.45v0l-.78-1.86a.31.31,0,0,0-.33-.29l-1.71.2a.31.31,0,0,0-.25.36l-.28,1.7a10.37,10.37,0,0,0-2.21.68L157.63,80a.31.31,0,0,0-.42-.12l-1.44.94a.31.31,0,0,0-.07.43l.59,1.85a10.13,10.13,0,0,0-1.16,1.27L153.24,84a.31.31,0,0,0-.42.11L152,85.65a.31.31,0,0,0,.16.41l1.36,1.23a10.2,10.2,0,0,0-.43,1.84l-1.75.71a.31.31,0,0,0-.3.32l.19,1.7a.31.31,0,0,0,.36.25l1.58.26A10.11,10.11,0,0,0,154,94.9l-1.08.73a.31.31,0,0,0-.22.38l.55,1.62a.31.31,0,0,0,.41.17l2-.1a.33.33,0,0,0,.19-.15,10.32,10.32,0,0,0,1,.87l-.07.1-.21,2a.31.31,0,0,0,.15.41l1.6.63a.31.31,0,0,0,.4-.19l1-1.34a10.35,10.35,0,0,0,2,.48v0l.76,1.87a.31.31,0,0,0,.32.3l1.72-.18a.31.31,0,0,0,.26-.36l.29-1.72a10.42,10.42,0,0,0,1.84-.52l1.23,1.4a.31.31,0,0,0,.41.17l1.56-.73a.31.31,0,0,0,.12-.42l-.33-2-.13-.14a10.09,10.09,0,0,0,1.34-1.36l.09.06,2,.24a.31.31,0,0,0,.42-.14l.66-1.58a.31.31,0,0,0-.19-.4L172.82,94a10.29,10.29,0,0,0,.51-2l1.66-.57a.31.31,0,0,0,.31-.31l-.1-1.71A.31.31,0,0,0,174.86,89.06Zm-8.2,1.6-.09.08-.47.16a2.84,2.84,0,0,1-.15.58l.38.3.06.11-.19.45-.12,0-.57-.07,0,0a2.74,2.74,0,0,1-.38.39l0,0,.1.56,0,.12-.44.21-.11-.05-.35-.4a3.16,3.16,0,0,1-.52.15l-.09.49-.07.1-.49.05-.09-.08-.22-.53h0a2.7,2.7,0,0,1-.55-.14l-.3.38-.11.06-.46-.18,0-.11.06-.57,0,0a2.93,2.93,0,0,1-.27-.24l-.06,0-.57,0-.11,0-.16-.46.06-.11.3-.21a3,3,0,0,1-.23-.72l-.45-.07-.1-.07-.05-.48.08-.09.5-.2a2.79,2.79,0,0,1,.12-.52l-.39-.35,0-.12.22-.44.12,0,.54.1a2.9,2.9,0,0,1,.33-.36l-.17-.53,0-.12.41-.27.12,0,.42.36a2.86,2.86,0,0,1,.63-.2l.08-.48.07-.1.49-.06.1.08.22.53h0a2.8,2.8,0,0,1,.53.13l.3-.32.11,0,.44.22,0,.12-.09.44a2.78,2.78,0,0,1,.43.39l.55-.11.12,0,.22.43,0,.12-.35.33a3,3,0,0,1,.18.61l.45.1.1.08Z"/></g><g class="cls-26"><path class="cls-27" d="M178.48,126.17l-2.73-1.06a18.13,18.13,0,0,0-.55-4l2.5-1.71a.55.55,0,0,0,.39-.68l-1-2.9a.56.56,0,0,0-.73-.3l-3.55.18a18.33,18.33,0,0,0-2.28-2.82l1-2.63a.55.55,0,0,0-.07-.78l-2.49-1.81a.56.56,0,0,0-.77.17l-2.19,1.7a18.24,18.24,0,0,0-3.2-1.3v0l-.87-3.5a.56.56,0,0,0-.5-.61l-3.09-.11a.55.55,0,0,0-.54.56l-1,2.93a18.61,18.61,0,0,0-4.09.61l-2.28-2.65a.56.56,0,0,0-.72-.32l-2.81,1.28a.56.56,0,0,0-.23.75l.53,3.44a18.13,18.13,0,0,0-2.39,1.94l-3.25-1.13a.56.56,0,0,0-.79.08L139,114a.55.55,0,0,0,.17.76l2.07,2.54a17.86,17.86,0,0,0-1.27,3.14l-3.29.78a.55.55,0,0,0-.61.5l-.13,3.06a.56.56,0,0,0,.57.54l2.73.89a17.87,17.87,0,0,0,.77,4.69l-2.11,1a.56.56,0,0,0-.49.61l.53,3a.57.57,0,0,0,.67.41l3.61.37a.63.63,0,0,0,.39-.22,18.24,18.24,0,0,0,1.48,1.79l-.14.17-.92,3.49a.55.55,0,0,0,.15.77l2.66,1.56a.56.56,0,0,0,.75-.24l2.22-2.09a18.23,18.23,0,0,0,3.32,1.37v0l.84,3.51a.55.55,0,0,0,.49.61l3.09.13a.55.55,0,0,0,.55-.56l1-3a18.39,18.39,0,0,0,3.41-.43l1.79,2.81a.56.56,0,0,0,.67.41l3-.87a.56.56,0,0,0,.34-.71l0-3.61a.61.61,0,0,0-.18-.28,18.38,18.38,0,0,0,2.73-2.05l.14.13,3.5,1a.56.56,0,0,0,.78-.14l1.61-2.62a.55.55,0,0,0-.23-.75l-2.09-2.24a17.91,17.91,0,0,0,1.47-3.49l3.09-.56a.56.56,0,0,0,.64-.46l.3-3.05A.56.56,0,0,0,178.48,126.17Zm-21.66,13.49a14.83,14.83,0,0,1-14.19-14.15l12.8,0a2.18,2.18,0,0,0,1.42,1.41Zm0-16.82a2.16,2.16,0,0,0-1.42,1.4l-12.8,0a14.83,14.83,0,0,1,14.25-14.09Zm1.28,16.83,0-12.71a2.15,2.15,0,0,0,1.42-1.41l12.81,0A14.83,14.83,0,0,1,158.13,139.66Zm1.45-15.42a2.17,2.17,0,0,0-1.42-1.41l0-12.71a14.83,14.83,0,0,1,14.19,14.14Z"/></g><g class="cls-28"><path class="cls-29" d="M96.17,121.26a29.54,29.54,0,0,1-5-.8,18.13,18.13,0,0,1-3,4.39l-1.4-1.4a16.8,16.8,0,0,1-1.34,1.24l1.44,1.43a19.21,19.21,0,0,1-11.22,4.65v-2.36H75.1c-.45,0-.89,0-1.33-.06v2.47a16.73,16.73,0,0,1-11.6-4.95l1.9-1.87a16.23,16.23,0,0,1-1.26-1.32l-1.87,1.85a20.15,20.15,0,0,1-4.6-11.07H59c0-.37,0-.74,0-1.12s0-.46,0-.69H56.27A16.45,16.45,0,0,1,61,100.41l1.73,1.72A17,17,0,0,1,64,100.81l-1.66-1.65A20.39,20.39,0,0,1,70.27,95c-.1-.43-.18-.86-.26-1.29a24.37,24.37,0,0,1-.42-3.62c-.3.06-.6.12-.89.19l-1.84-4-1.75.52L66,91.07A23.58,23.58,0,0,0,63,92.44l-2.84-3.35-1.53,1,2,3.91a23.4,23.4,0,0,0-2.55,2.17L54.57,93.6l-1.25,1.32,2.87,3.34a22.87,22.87,0,0,0-2,3L50,99.79l-.81,1.61,3.76,2.42a22.66,22.66,0,0,0-.84,2.4l-4.41-.4-.38,1.76,4.18,1.4c-.12.72-.15,1.45-.19,2.19l-4.42.53v1.8l4.42.53c0,.72.09,1.44.2,2.14l-4.17,1.39.37,1.76,4.37-.4a24.37,24.37,0,0,0,.83,2.43l-3.71,2.38.81,1.61,4.12-1.45a23.65,23.65,0,0,0,2,3.06l-2.8,3.26,1.25,1.31L58,129a24.35,24.35,0,0,0,2.58,2.21L58.67,135l1.53,1,2.74-3.23a24.46,24.46,0,0,0,3,1.42l-.81,4.18,1.75.54,1.76-3.84a23.7,23.7,0,0,0,4.32.72l.52,4.35h1.81l.51-4.33a23.59,23.59,0,0,0,4.81-.78l1.78,3.89,1.72-.55-.82-4.26a24,24,0,0,0,2.9-1.41L89,136l1.52-1-1.93-3.88A24.93,24.93,0,0,0,91.06,129l3.48,2.53,1.24-1.31-2.84-3.34a23.51,23.51,0,0,0,2-3l4.17,1.48.81-1.61-3.75-2.44Z"/></g><g class="cls-30"><path class="cls-20" d="M150.73,81.14a1.17,1.17,0,0,0-1.29-1l-6-1.34a37.76,37.76,0,0,0-2.41-8l4.62-4.33a1.15,1.15,0,0,0,.6-1.53l-3-5.7a1.18,1.18,0,0,0-1.6-.4l-7.29,1.49a38.59,38.59,0,0,0-5.62-5.14l1.19-5.76a1.16,1.16,0,0,0-.4-1.59l-5.74-3a1.19,1.19,0,0,0-1.55.59l-5,4.21a52,52,0,0,0-8.08-1.69v-.06l-1.87-7c-.08-.68-.1-1.16-.72-1.1l-6.16.75c-.6.07-.89.67-.82,1.35l-1,6.38a38.45,38.45,0,0,0-8.24,2.55L84.82,46a1.16,1.16,0,0,0-1.59-.44l-5.4,3.53a1.17,1.17,0,0,0-.25,1.62l2.22,6.95a38.07,38.07,0,0,0-4.33,4.77l-7.09-1.32a1.17,1.17,0,0,0-1.6.41l-2.89,5.74a1.17,1.17,0,0,0,.61,1.53l5.09,4.61A38.11,38.11,0,0,0,68,80.35L61.42,83a1.16,1.16,0,0,0-1.11,1.21L61,90.61a1.18,1.18,0,0,0,1.36.95l5.93,1A37.62,37.62,0,0,0,71.39,102l-4,2.75a1.16,1.16,0,0,0-.83,1.42l2.06,6.08a1.18,1.18,0,0,0,1.53.65l7.61-.37a1.27,1.27,0,0,0,.72-.57,40.15,40.15,0,0,0,3.64,3.25l-.25.38-.79,7.52a1.16,1.16,0,0,0,.55,1.55l6,2.38a1.17,1.17,0,0,0,1.49-.73l3.91-5a38.52,38.52,0,0,0,7.34,1.8v.06l2.86,7a1.18,1.18,0,0,0,1.22,1.11l6.43-.7a1.17,1.17,0,0,0,1-1.33l1.1-6.44a38.35,38.35,0,0,0,6.91-2l4.62,5.26a1.17,1.17,0,0,0,1.51.65l5.86-2.74a1.17,1.17,0,0,0,.47-1.57L131,114.94l-.48-.53a37.41,37.41,0,0,0,5-5.1l.34.21,7.55.9a1.17,1.17,0,0,0,1.57-.53l2.48-5.93a1.16,1.16,0,0,0-.71-1.48l-5-4a37.54,37.54,0,0,0,1.93-7.68l6.22-2.13a1.17,1.17,0,0,0,1.17-1.15ZM75.61,88a1.94,1.94,0,1,1,2-1.94A1.95,1.95,0,0,1,75.61,88Zm50-24.43a2,2,0,0,1,2.77,0,1.94,1.94,0,0,1,0,2.75,2,2,0,0,1-2.77,0A1.92,1.92,0,0,1,125.59,63.57ZM105.7,54.25a1.95,1.95,0,1,1-2,1.95A2,2,0,0,1,105.7,54.25ZM83,63.57a2,2,0,0,1,2.77,0,1.93,1.93,0,0,1,0,2.75,2,2,0,0,1-2.77,0A1.94,1.94,0,0,1,83,63.57Zm2.77,45a2,2,0,0,1-2.77,0,1.93,1.93,0,0,1,0-2.75,2,2,0,0,1,2.77,0A1.92,1.92,0,0,1,85.81,108.55Zm19.89,9.32a1.94,1.94,0,1,1,2-1.94A2,2,0,0,1,105.7,117.86Zm22.66-9.32a2,2,0,0,1-2.77,0,1.92,1.92,0,0,1,0-2.75,2,2,0,0,1,2.77,0A1.93,1.93,0,0,1,128.36,108.55Zm-22.66,3a26,26,0,1,1,26.2-26A26.1,26.1,0,0,1,105.7,111.52ZM135.78,88a1.94,1.94,0,1,1,2-1.94A2,2,0,0,1,135.78,88Z"/></g><g class="cls-31"><path class="cls-32" d="M52.72,135.13s-.11-1.08-.15-1.62l0,0h0a.46.46,0,0,0-.48-.48H52l-1.11.1h0c-.37,0-.46-.5-.46-.51a14.38,14.38,0,0,0-.42-1.46,1.24,1.24,0,0,1-.09-.44c0-.35.23-.43.23-.43l1-.52a.43.43,0,0,0,.27-.4.69.69,0,0,0-.08-.31l-.78-1.51s-.17-.37-.33-.33a1.79,1.79,0,0,0-.35.14l-1,.49-.14,0a.75.75,0,0,1-.52-.25h0c-.06-.12-.73-1-1.1-1.41a.69.69,0,0,1-.2-.42.25.25,0,0,1,.1-.21l.75-.88a.54.54,0,0,0,.15-.35.54.54,0,0,0-.17-.36l-1.52-1.2a.34.34,0,0,0-.44,0l-.19.23-.7.84a.28.28,0,0,1-.24.09,1,1,0,0,1-.42-.13c-.28-.24-1.25-.68-1.68-1-.21-.13-.26-.27-.26-.36a.29.29,0,0,1,.06-.18l0-.08.3-.93a.64.64,0,0,0,0-.21.52.52,0,0,0-.38-.47h-.05l-1.58-.51h0l-.2-.07c-.29-.1-.44.56-.44.56s-.3.84-.38,1.08h0c-.06.16-.64,0-.64,0-.23-.06-1.07-.11-1.66-.16s-.6-.39-.6-.39,0-.42-.09-1.05c0-.47-.35-.51-.51-.51h-.09l-1.58.12a.54.54,0,0,0-.48.57h0c0,.12,0,.82,0,1.12h0c0,.27-.26.42-.48.48h-.07a14.91,14.91,0,0,0-1.64.47h0a.51.51,0,0,1-.19,0,.5.5,0,0,1-.49-.33h0s-.11-.29-.39-.82L30.6,121c-.09-.24-.25-.08-.43,0l-.22.13s-1.16.5-1.59.72c-.2.1-.26.19-.26.32a.3.3,0,0,0,.07.22l.51.89.12.38c0,.19-.21.28-.38.39s-.82.63-1.34,1.07l0,0h0a.7.7,0,0,1-.43.17h0a.5.5,0,0,1-.37-.17l-.75-.63a.51.51,0,0,0-.33-.12.58.58,0,0,0-.35.13l-1.08,1.25-.07.08,0,0a.54.54,0,0,0-.14.34.6.6,0,0,0,.19.4l.88.74a.34.34,0,0,1,.11.27,1,1,0,0,1-.12.42,13.32,13.32,0,0,0-.86,1.52c-.15.29-.34.36-.48.36a.46.46,0,0,1-.23-.07l-.93-.3-.2,0a.53.53,0,0,0-.47.3l-.52,1.59a.54.54,0,0,0,.27.73l1.15.37c.3.09.24.63.24.63a14.62,14.62,0,0,0-.2,1.5c0,.58-.5.57-.56.57h0a9.31,9.31,0,0,1-.94.1c-.66.06-.53.75-.53.75s.07.89.12,1.56c0,.51.36.6.51.6H21l1-.07h.07a.54.54,0,0,1,.58.47c.07.4.4,1.3.49,1.78S23,141,23,141l-1,.49a.53.53,0,0,0-.26.79l.75,1.47a.45.45,0,0,0,.42.27.86.86,0,0,0,.4-.12l.91-.47.16,0a.7.7,0,0,1,.53.39c.14.23.76,1,1.07,1.36s0,.62,0,.62l-.68.8a.55.55,0,0,0,0,.76s.84.76,1.31,1.11a.62.62,0,0,0,.36.14.59.59,0,0,0,.43-.22l.73-.85a.35.35,0,0,1,.27-.1.76.76,0,0,1,.4.13c.23.16,1,.59,1.52.84s.35.63.35.63l-.29.91c-.22.67.27.79.27.79l1.57.5a.82.82,0,0,0,.27,0,.51.51,0,0,0,.49-.36l.36-1.1c.06-.2.27-.25.47-.25a2.32,2.32,0,0,1,.42,0c.21,0,.84.11,1.48.16s.57.5.57.5,0,.55.08,1.06.44.45.59.45H37l1.52-.12c.67-.06.59-.62.59-.62s-.05-.6-.09-1,.43-.56.6-.58.84-.22,1.51-.43a1.07,1.07,0,0,1,.32-.06.42.42,0,0,1,.45.3l.5,1a.43.43,0,0,0,.41.24.76.76,0,0,0,.25,0l1.57-.8a.51.51,0,0,0,.18-.76l-.46-.9c-.14-.28.06-.56.33-.75s1-.76,1.39-1.08c0,0,.33-.3.42-.3l.19.22s.37.41.78.88a.54.54,0,0,0,.81,0l1.17-1.35a.68.68,0,0,0,.11-.41.63.63,0,0,0-.26-.43l-.87-.75a.33.33,0,0,1-.11-.26,1,1,0,0,1,.15-.45c.13-.17.56-1.09.85-1.59h0l0,.1c.12-.21.29-.16.41-.16h0l.26,0a6.25,6.25,0,0,1,.89.23v.06c.09,0,.16.13.23.13h0c.4,0,.48-.5.48-.5s.33-1.06.51-1.61a.68.68,0,0,0,0-.24.53.53,0,0,0-.38-.48l-1-.33a.5.5,0,0,1-.32-.51l0-.17c.07-.32.15-1.34.22-1.83h0v-.21c.06-.17.21-.17.32-.21h0s.58-.06,1.19-.1a.47.47,0,0,0,.49-.52A.33.33,0,0,0,52.72,135.13Zm-16.58-10a10.56,10.56,0,0,1,7.33,2.94l-1.68,1.67c-.17-.16-.35-.31-.54-.45l.25-1.18a.24.24,0,0,0-.08-.32l-1.18-.61a.24.24,0,0,0-.32.12l-1,.87a11.51,11.51,0,0,0-1.58-.35h0l-.46-1.43c0-.14-.06-.24-.19-.22l-1.28.15a.23.23,0,0,0-.18.28l-.2,1.3a7.93,7.93,0,0,0-1.69.52l-1.14-1a.23.23,0,0,0-.32-.09l-1.11.72a.23.23,0,0,0,0,.33l.31,1-1.76-1.75A10.56,10.56,0,0,1,36.14,125.15Zm4.31,7.48.17,0,.32.62-.07.17-.5.47a4,4,0,0,1,.26.87l.65.14.14.11,0,.7-.13.12-.67.23a4.4,4.4,0,0,1-.21.83l.54.44.08.16-.27.64-.17.06-.78-.09-1.71-1.7a1.73,1.73,0,0,0,0-1.61l2.2-2.18Zm-1,6.91-.05.17-.63.3-.16-.07-.5-.57a4,4,0,0,1-.75.21l-.12.7-.1.15-.7.07-.25-.12-.42-.76h0s-.43-.1-.69-.19l-.36.54-.14.08-.64-.26,0-.17.06-.6,1.85-1.83a1.79,1.79,0,0,0,1.63,0l2,1.95Zm-6.74-1-.16-.07-.23-.66.09-.15.44-.31a4.09,4.09,0,0,1-.33-1l-.65-.1-.15-.1-.08-.69.12-.13.71-.29a3.8,3.8,0,0,1,.18-.74l-.55-.5-.07-.17.32-.62.17,0,.74.14,1.8,1.79a1.72,1.72,0,0,0,0,1.61L33,138.49Zm.81-6.74,0-.18.58-.38.18,0,.61.52a4,4,0,0,1,.9-.28l.11-.69.1-.15.7-.08.26.12.43.76h0a5.57,5.57,0,0,0,.64.19l.37-.46.14-.06.61.33,0,.17-.13.63.12.1-1.76,1.74a1.78,1.78,0,0,0-1.62,0l-2.28-2.26Zm-7.91,3.86a10.41,10.41,0,0,1,3-7.27l2.1,2.09-.31.37-1.45-.28a.24.24,0,0,0-.33.09L28,131.81a.23.23,0,0,0,.13.31l1,.94a7.28,7.28,0,0,0-.33,1.41l-1.34.54a.24.24,0,0,0-.23.25l.14,1.3a.25.25,0,0,0,.28.2l1.21.2a8,8,0,0,0,.63,1.94l-.83.56a.24.24,0,0,0-.17.29l.42,1.24a.24.24,0,0,0,.31.13l1.1-.05-1.81,1.79A10.39,10.39,0,0,1,25.59,135.63ZM36.14,146.1a10.56,10.56,0,0,1-6.84-2.51l2.18-2.16.21.18-.05.08-.16,1.54a.23.23,0,0,0,.11.32l1.23.49a.24.24,0,0,0,.3-.15l.76-1a9.77,9.77,0,0,0,1.45.37h0l.63,1.43a.26.26,0,0,0,.27.23l1.33-.14a.24.24,0,0,0,.2-.28l.23-1.32a8,8,0,0,0,1.42-.4l.95,1.08a.23.23,0,0,0,.31.13l1.2-.56a.24.24,0,0,0,.09-.32l-.25-1.52-.1-.11,0,0,1.78,1.78A10.57,10.57,0,0,1,36.14,146.1Zm8-3.67-1.76-1.75c.08-.09.17-.17.24-.27l.07,0,1.55.19a.24.24,0,0,0,.32-.11l.51-1.22a.25.25,0,0,0-.15-.31l-1-.81a7.81,7.81,0,0,0,.4-1.57l1.27-.43a.24.24,0,0,0,.24-.24l-.07-1.31a.24.24,0,0,0-.26-.21l-1.23-.28a8,8,0,0,0-.49-1.64l.95-.89a.24.24,0,0,0,.12-.31l-.61-1.17a.24.24,0,0,0-.32-.08l-1.14.23,1.44-1.43a10.4,10.4,0,0,1,0,13.57Z"/></g><path class="cls-17" d="M54.86,135.76l7.23,5.54,3.06,8.56a2.8,2.8,0,0,0,3.56,1.7A2.77,2.77,0,0,0,70.43,148l-3.22-9,0,0a2.65,2.65,0,0,0-1-1.31l-8.14-6.24a2.72,2.72,0,0,0-3.79.55A2.68,2.68,0,0,0,54.86,135.76Z"/><path class="cls-17" d="M83.05,137.9a5.84,5.84,0,0,0-7.67,3,5.76,5.76,0,0,0,3,7.62,5.84,5.84,0,0,0,7.67-3A5.76,5.76,0,0,0,83.05,137.9Z"/><path class="cls-17" d="M76,148.64l-5.24-2.29.51,1.42a1,1,0,0,1,.05.25,3.77,3.77,0,0,1-3.45,4.67,4,4,0,0,1-3.9-2.92l-.27-.74-5.85,13.16-.06.13-.05.11a1.49,1.49,0,0,0-.12.54V163l-1.3,11.23a2.76,2.76,0,0,0-.28.37l-5.6,9.27a2.75,2.75,0,0,0,1,3.8,2.8,2.8,0,0,0,3.83-.95l5.61-9.26a2.79,2.79,0,0,0,.17-.34,2.63,2.63,0,0,0,.6-1.39l1.1-9.51.88.38L69.3,175v10.31a2.79,2.79,0,0,0,5.58,0V174.48a2.68,2.68,0,0,0-.46-1.55l-4.57-6.71,6.94-15.6A1.5,1.5,0,0,0,76,148.64Z"/><path class="cls-18" d="M107.24,144.41a5.74,5.74,0,1,0-5.79-5.74A5.76,5.76,0,0,0,107.24,144.41Z"/><path class="cls-18" d="M123.81,141.1a.17.17,0,0,0,0,0,2.38,2.38,0,0,0-.12-.6l-2.76-9.59a2.41,2.41,0,0,0-3-1.64,2.38,2.38,0,0,0-1.65,3l2.33,8.08-7.34,5h-8.09l-7.35-5,2.33-8.08a2.41,2.41,0,0,0-4.63-1.31l-2.76,9.59a2.38,2.38,0,0,0-.13.6v0c0,.06,0,.11,0,.17s0,.12,0,.19h0A2.39,2.39,0,0,0,92,143.39l9.15,6.21.16.09v17a1.13,1.13,0,0,0,0,.29V185.2a2.62,2.62,0,0,0,3,2.94c1.75,0,2.55-1.06,2.55-2.94V167.93h.79V185.2a2.62,2.62,0,0,0,3,2.94c1.75,0,2.54-1.06,2.54-2.94V167a1.23,1.23,0,0,0,0-.29v-17l.16-.09,9.15-6.21a2.4,2.4,0,0,0,1.33-1.92h0c0-.06,0-.12,0-.19S123.81,141.16,123.81,141.1Z"/></g></g></svg>